<svg id="Layer_1" data-name="Layer 1" xmlns="http://www.w3.org/2000/svg" viewBox="0 0 304.01 299.66" style="visibility: visible;">
  <defs>
    <style>
      .cls-1 {
        fill: #707070;
      }

      .cls-2 {
        fill: white;
      }
    </style>
  </defs>
  <title>Untitled-1</title>
  <g>
    <polygon class="cls-1" points="110.23 149.85 76.36 116.48 42.49 149.85 76.36 183.27 110.23 149.85"></polygon>
    <polygon class="cls-1" points="185.53 77.2 151.54 43.69 117.59 77.2 151.54 110.67 185.53 77.2"></polygon>
    <polygon class="cls-1" points="190 150.26 223.66 183.46 257.31 150.26 223.66 117.1 190 150.26"></polygon>
    <polygon class="cls-1" points="117.59 223.59 151.95 257.48 186.33 223.59 151.95 189.7 117.59 223.59"></polygon>
    <path class="cls-1" d="M300.7,140.44l-17.2-16.93V25.18H183.77L166.57,8.26a18.28,18.28,0,0,0-25.66,0L123.74,25.18H24v98.33L7.31,139.93a17.72,17.72,0,0,0,0,25.3L24,181.68V281H124.74l16.67,16.44a18.33,18.33,0,0,0,12.5,5.22h.66a18.38,18.38,0,0,0,12.53-5.22L183.73,281H283.5V182.66l17.2-17A17.66,17.66,0,0,0,306,153.16V153A17.68,17.68,0,0,0,300.7,140.44ZM143,29.51a15,15,0,0,1,10.21-4.33,3.91,3.91,0,0,1,.79,0,15,15,0,0,1,10.21,4.33l39.55,39a14.64,14.64,0,0,1,3.67,14.79,15.79,15.79,0,0,1-.7,1.84,15.4,15.4,0,0,1-3,4.31l-39.55,39a15.15,15.15,0,0,1-21.21,0l-39.53-39a14.49,14.49,0,0,1-3-4.3,14.69,14.69,0,0,1,3-16.64ZM24,152.49a14.56,14.56,0,0,1,4.36-10l39.42-38.87A15,15,0,0,1,78.31,99.3a15.36,15.36,0,0,1,5.26.94l.62.24a15.27,15.27,0,0,1,4.74,3.11l39.41,38.87a14.61,14.61,0,0,1,0,20.85L88.93,202.15a14.31,14.31,0,0,1-4.77,3.1c-.47.21-1,.35-1.42.51a15.14,15.14,0,0,1-15-3.61L28.36,163.31a14.58,14.58,0,0,1-4.36-10ZM164.69,276.61A15.22,15.22,0,0,1,154.26,281h-.62a15.29,15.29,0,0,1-10.43-4.39l-40-39.41a14.84,14.84,0,0,1-3.71-15,16,16,0,0,1,1.67-3.65,12.61,12.61,0,0,1,2-2.56l40-39.42a15.28,15.28,0,0,1,21.48,0l40,39.42a14.19,14.19,0,0,1,2.06,2.56,17.33,17.33,0,0,1,1.4,2.79,14.89,14.89,0,0,1-3.46,15.84Zm114.46-113L240,202.26a14.88,14.88,0,0,1-10.47,4.25,16.47,16.47,0,0,1-3.83-.48c-.45-.13-.88-.26-1.32-.43a14.17,14.17,0,0,1-5.44-3.34L179.8,163.65a14.55,14.55,0,0,1,0-20.75L219,104.31a14.52,14.52,0,0,1,5.46-3.37l.71-.22a15,15,0,0,1,4.45-.66A14.82,14.82,0,0,1,240,104.31l39.14,38.59A14.47,14.47,0,0,1,283.5,153v.57A14.55,14.55,0,0,1,279.15,163.65Z" transform="translate(-2 -3)"></path>
  </g>
  <path class="cls-2" d="M153.54,113.67,119.59,80.2l33.95-33.51,34,33.51-34,33.47M154,25.18h-.79A15,15,0,0,0,143,29.51l-39.53,39a14.87,14.87,0,0,0,0,20.94l30.21,29.76,9.32,9.19a15.15,15.15,0,0,0,21.21,0l39.55-39a15.4,15.4,0,0,0,3-4.31,15.79,15.79,0,0,0,.7-1.84,14.64,14.64,0,0,0-3.67-14.79l-39.55-39A15,15,0,0,0,154,25.18" transform="translate(-2 -3)"></path>
  <path class="cls-2" d="M225.67,186.46,192,153.27l33.67-33.17,33.64,33.17-33.64,33.19m3.9-86.4a15,15,0,0,0-4.45.66l-.71.22a14.52,14.52,0,0,0-5.46,3.37L179.8,142.9a14.55,14.55,0,0,0,0,20.75L219,202.26a14.17,14.17,0,0,0,5.44,3.34c.44.17.87.3,1.32.43a16.47,16.47,0,0,0,3.83.48A14.88,14.88,0,0,0,240,202.26l39.14-38.61a14.51,14.51,0,0,0,0-20.75L240,104.31a14.82,14.82,0,0,0-10.44-4.25" transform="translate(-2 -3)"></path>
  <path class="cls-2" d="M78.36,186.27,44.49,152.85l33.87-33.37,33.87,33.37L78.36,186.27m0-87a15,15,0,0,0-10.53,4.29L28.36,142.46a14.6,14.6,0,0,0,0,20.85l39.42,38.84a15.14,15.14,0,0,0,15,3.61c.47-.16,1-.3,1.42-.51a14.31,14.31,0,0,0,4.77-3.1l39.41-38.84a14.61,14.61,0,0,0,0-20.85L88.93,103.59a15.27,15.27,0,0,0-4.74-3.11l-.62-.24a15.36,15.36,0,0,0-5.26-.94" transform="translate(-2 -3)"></path>
  <path class="cls-2" d="M154,260.48l-25-24.71-9.31-9.19L154,192.7l34.38,33.88L154,260.48m0-88.3a15.13,15.13,0,0,0-10.74,4.41l-40,39.42a12.61,12.61,0,0,0-2,2.56,16,16,0,0,0-1.67,3.65,14.84,14.84,0,0,0,3.71,15l40,39.41A15.29,15.29,0,0,0,153.64,281h.62a15.22,15.22,0,0,0,10.43-4.39l40-39.41a14.89,14.89,0,0,0,3.46-15.84,17.33,17.33,0,0,0-1.4-2.79,14.19,14.19,0,0,0-2.06-2.56l-40-39.42A15,15,0,0,0,154,172.18" transform="translate(-2 -3)"></path>
</svg>
